{
  "accessors": [
    {
      "bufferView": 2,
      "componentType": 5126,
      "count": 61966,
      "max": [
        6.308572769165039,
        16.280677795410156,
        8.172697067260742
      ],
      "min": [
        -6.283570289611816,
        -0.3377397060394287,
        -9.389219284057617
      ],
      "type": "VEC3"
    },
    {
      "bufferView": 2,
      "byteOffset": 743592,
      "componentType": 5126,
      "count": 61966,
      "max": [
        0.9998417496681213,
        0.9999971389770508,
        0.99982088804245
      ],
      "min": [
        -0.9999969005584717,
        -0.9999994039535522,
        -0.999932587146759
      ],
      "type": "VEC3"
    },
    {
      "bufferView": 1,
      "componentType": 5126,
      "count": 61966,
      "max": [
        0.996820867061615,
        0.9981942772865295
      ],
      "min": [
        0.0017552240751683712,
        0.0017217397689819336
      ],
      "type": "VEC2"
    },
    {
      "bufferView": 0,
      "componentType": 5125,
      "count": 292500,
      "type": "SCALAR"
    }
  ],
  "asset": {
    "extras": {
      "author": "Arrangemonk (https://sketchfab.com/Arrangemonk9000)",
      "license": "SKETCHFAB Standard (https://sketchfab.com/licenses)",
      "source": "https://sketchfab.com/3d-models/skull-c1c8630e0ae84fa19ede315677677997",
      "title": "Skull"
    },
    "generator": "Sketchfab-16.63.0",
    "version": "2.0"
  },
  "bufferViews": [
    {
      "buffer": 0,
      "byteLength": 1170000,
      "name": "floatBufferViews",
      "target": 34963
    },
    {
      "buffer": 0,
      "byteLength": 495728,
      "byteOffset": 1170000,
      "byteStride": 8,
      "name": "floatBufferViews",
      "target": 34962
    },
    {
      "buffer": 0,
      "byteLength": 1487184,
      "byteOffset": 1665728,
      "byteStride": 12,
      "name": "floatBufferViews",
      "target": 34962
    }
  ],
  "buffers": [
    {
      "byteLength": 3152912,
      "uri": "scene.bin"
    }
  ],
  "extensionsUsed": [
    "KHR_materials_specular"
  ],
  "images": [
    {
      "uri": "textures/default_tex0.002_baseColor.jpeg"
    }
  ],
  "materials": [
    {
      "extensions": {
        "KHR_materials_specular": {
          "specularColorFactor": [
            1.0,
            1.0,
            1.0
          ],
          "specularFactor": 0.0
        }
      },
      "name": "default_tex0.002",
      "pbrMetallicRoughness": {
        "baseColorTexture": {
          "index": 0
        },
        "metallicFactor": 0.0
      }
    }
  ],
  "meshes": [
    {
      "name": "Object_0",
      "primitives": [
        {
          "attributes": {
            "NORMAL": 1,
            "POSITION": 0,
            "TEXCOORD_0": 2
          },
          "indices": 3,
          "material": 0,
          "mode": 4
        }
      ]
    }
  ],
  "nodes": [
    {
      "children": [
        1
      ],
      "matrix": [
        1.0,
        0.0,
        0.0,
        0.0,
        0.0,
        2.220446049250313e-16,
        -1.0,
        0.0,
        0.0,
        1.0,
        2.220446049250313e-16,
        0.0,
        0.0,
        0.0,
        0.0,
        1.0
      ],
      "name": "Sketchfab_model"
    },
    {
      "children": [
        2
      ],
      "name": "root"
    },
    {
      "children": [
        3
      ],
      "matrix": [
        1.0,
        0.0,
        0.0,
        0.0,
        0.0,
        2.220446049250313e-16,
        1.0,
        0.0,
        0.0,
        -1.0,
        2.220446049250313e-16,
        0.0,
        0.0,
        0.0,
        0.0,
        1.0
      ],
      "name": "GLTF_SceneRootNode"
    },
    {
      "children": [
        4
      ],
      "name": "Mesh_0_Part_lp_0"
    },
    {
      "mesh": 0,
      "name": "Object_4"
    }
  ],
  "samplers": [
    {
      "magFilter": 9729,
      "minFilter": 9987,
      "wrapS": 33071,
      "wrapT": 33071
    }
  ],
  "scene": 0,
  "scenes": [
    {
      "name": "Sketchfab_Scene",
      "nodes": [
        0
      ]
    }
  ],
  "textures": [
    {
      "sampler": 0,
      "source": 0
    }
  ]
}
